<svg width="27" height="35" viewBox="0 0 27 35" fill="none" xmlns="http://www.w3.org/2000/svg">
<path d="M25.2958 14.4631C25.1313 12.4972 23.1864 12.0268 22.387 12.3116C21.5875 12.5963 21.0686 13.13 20.8914 13.8894C20.748 14.5032 20.6045 14.9124 20.44 14.9757C20.2586 15.0432 20.092 15.0158 20.092 15.0158C20.092 15.0158 20.0624 13.6869 20.0709 13.1511C20.092 12.0458 20.4295 11.7631 20.4295 11.7631C20.4295 11.7631 20.3577 11.3898 20.2143 11.183C20.0709 10.9784 19.8051 10.7126 19.8051 10.7126C19.8051 10.7126 19.8663 11.2442 19.6005 11.3687C19.3347 11.4931 19.0478 11.3075 19.0478 11.3075L19.3136 12.4128C19.3136 12.4128 18.8833 17.9225 18.8432 18.0448C18.8031 18.1672 17.1852 20.9726 17.1852 20.9726C17.1852 20.9726 16.2423 21.8544 15.793 22.059C15.3416 22.2636 14.9535 22.7973 13.2133 22.8162C11.473 22.8373 9.9775 21.4641 9.9775 21.4641L8.48195 20.0298L7.37664 16.7729L7.21211 13.4548L7.28172 12.2483L7.33023 11.7441L7.25219 11.4889C7.25219 11.4889 7.10875 11.6323 6.84297 11.5712C6.57719 11.51 6.47383 11.1619 6.47383 11.1619C6.47383 11.1619 6.37047 11.3265 6.35148 11.4087C6.33039 11.491 6.3093 11.6808 6.3093 11.6808C6.3093 11.6808 6.59617 11.9825 6.65734 12.4128C6.71852 12.8431 6.63625 14.6255 6.33039 14.5833C6.02242 14.5433 6.12367 13.0477 4.95719 12.474C3.9468 11.9762 2.43859 12.1259 1.82266 13.3747C1.20883 14.6234 1.65813 16.0979 3.58398 17.4711C5.50984 18.8443 7.56016 19.9981 7.885 21.0992C8.27313 22.4091 7.39352 23.1875 7.39352 23.1875C7.39352 23.1875 8.03266 23.0989 8.34695 22.4134C8.4482 22.1919 8.48617 21.8691 8.50094 21.6772C9.22867 22.6264 10.1969 23.4301 11.4794 23.8182C11.9645 23.9848 12.5109 24.0692 13.2702 24.0692C13.3799 24.0692 13.4875 24.065 13.5951 24.0608C14.4831 24.0291 15.2425 23.8625 15.9787 23.4976C16.9722 23.0377 17.7421 22.3353 18.337 21.538C18.3201 21.7278 18.4361 22.2003 18.6576 22.5737C19.0457 23.2297 19.7017 23.2698 19.7017 23.2698C19.7017 23.2698 18.801 22.7382 18.9845 21.4683C19.168 20.1985 20.0076 19.7471 21.2774 18.9287C22.5515 18.1081 25.4582 16.4291 25.2958 14.4631ZM4.4868 17.2496C3.91516 16.8467 2.9132 16.3088 2.49977 15.4883C1.94922 14.3935 2.39641 13.0709 3.44266 12.9085C5.61531 12.5668 5.65539 15.2647 5.79883 15.5916C5.94227 15.9186 6.35148 15.9397 6.35148 15.9397C6.35148 15.9397 6.36625 16.1211 6.42531 16.4712C6.42742 16.4818 6.42953 16.4902 6.42953 16.5008L6.43586 16.5324C6.47594 16.7708 6.53289 17.0682 6.61305 17.4078L6.61937 17.4331C6.66367 17.6251 6.71008 17.8065 6.75859 17.9731C6.85563 18.3233 6.97375 18.7008 7.1193 19.089C6.90836 18.9455 5.69969 18.1081 4.4868 17.2496ZM24.1694 15.733C23.7159 16.467 22.7983 17.0133 22.1212 17.4732C21.2479 18.0659 19.9485 18.9561 19.5815 19.205C19.6659 18.9814 19.7397 18.7599 19.8072 18.5426C19.9169 18.2558 20.0329 17.9056 20.113 17.528C20.324 16.5366 20.3598 15.6697 20.3598 15.6697C20.3598 15.6697 20.7902 15.792 21.0559 15.5051C21.3217 15.2183 21.4209 14.3281 21.6698 13.9083C22.0579 13.2523 22.8363 12.5773 24.0048 13.3958C24.6798 13.8704 24.7052 14.8639 24.1694 15.733ZM12.7661 24.7294L13.9579 24.7147C13.9579 24.7147 13.9895 26.0162 14.1773 26.9865C14.365 27.9589 14.616 29.0389 14.616 29.0389C14.616 29.0389 12.1881 29.8531 12.2029 28.9756C12.2177 28.0981 12.5784 26.3895 12.5784 26.3895C12.5784 26.3895 12.7977 24.354 12.7661 24.7294Z" fill="#FFA828"/>
<path d="M10.7664 11.2041C10.7664 11.2041 12.0932 11.0544 13.3272 11.0733C14.5612 11.0923 15.831 11.3349 15.831 11.3349C15.831 11.3349 15.7572 15.4651 15.5315 17.7833C15.3079 20.1015 14.4304 21.8375 14.1963 22.329C13.9706 22.8057 13.806 23.0609 13.806 23.0609L12.6163 22.9217L10.5597 18.7916L10.7664 11.2041Z" fill="#FFA828"/>
<path d="M9.17805 11.8222C9.17805 11.8222 9.55141 11.6344 10.0935 11.4298C10.585 11.2442 11.028 11.1873 11.028 11.1873C11.028 11.1873 11.0406 13.9252 11.0849 15.8785C11.1229 17.5428 11.7388 20.2702 12.0384 21.0001C12.3379 21.7299 12.8779 22.8437 12.8779 22.8437C12.8779 22.8437 11.7916 22.6876 11.1229 21.8396C10.7706 21.3924 9.12321 17.933 9.06625 15.6528C9.0093 13.3726 9.23289 11.7652 9.17805 11.8222Z" fill="#FFEFAB"/>
<path d="M8.56 12.1386C8.52203 12.2504 8.22461 14.6066 8.69078 16.7919C9.15695 18.9772 9.84672 20.4727 10.3023 21.0655C10.7073 21.5907 10.971 21.8396 11.1208 21.8396C11.2705 21.8396 10.5048 20.0277 10.1484 18.6059C9.79398 17.1863 9.60625 15.4841 9.56828 14.6445C9.53031 13.8029 9.49445 11.6345 9.49445 11.6345C9.49445 11.6345 9.08312 11.8222 8.99031 11.877C8.8975 11.934 8.56 12.1386 8.56 12.1386Z" fill="#FFFCFD"/>
<path d="M11.2516 28.8849C11.2516 28.8849 12.0553 27.5771 12.224 26.5857C12.3928 25.5943 12.4856 24.7168 12.4856 24.7168L12.9834 24.7379C12.9834 24.7379 12.9349 26.1744 12.8779 27.1468C12.821 28.1192 12.6543 29.0727 12.6543 29.0727L11.2516 28.8849Z" fill="#FFEFAB"/>
<path d="M11.8696 23.9068C11.8696 23.9068 12.2429 23.5419 13.2702 23.5419C14.2975 23.5419 14.7383 23.9363 14.7383 23.9363L14.7657 25.204C14.7657 25.204 14.0823 24.991 13.2512 24.9805C12.5593 24.972 11.8147 25.2294 11.8147 25.2294L11.8696 23.9068ZM7.38293 11.3159C7.5559 11.1556 9.21387 9.91108 13.1394 9.87733C17.3624 9.83936 18.9465 11.0628 19.0457 11.1303C19.1575 11.2041 19.2882 11.5416 19.2334 11.6914C19.1764 11.8412 19.0647 11.896 18.7482 11.7652C18.4297 11.6344 16.8604 10.489 13.0846 10.6072C9.45856 10.719 7.92082 11.8222 7.7584 11.915C7.62762 11.9888 7.38504 12.0078 7.27325 11.858C7.15934 11.7104 7.27114 11.4214 7.38293 11.3159ZM19.2334 12.1955C18.7482 12.2335 19.0836 16.1401 18.0564 18.5869C16.9553 21.2047 15.5504 21.9514 15.6074 22.1012C15.6643 22.2509 17.0397 21.8354 17.9066 20.6056C18.7103 19.4665 19.1954 18.4562 19.4211 17.1104C19.6426 15.7646 19.7734 12.1533 19.2334 12.1955ZM7.27957 12.6427C7.15723 12.6364 7.28168 14.5855 7.0834 15.4419C7.00746 15.7709 6.82184 15.8384 6.80285 15.9123C6.78387 15.9861 7.20996 18.4941 7.92504 19.5952C8.61692 20.6605 9.98168 21.9873 10.2053 21.7637C10.4289 21.5401 9.21387 20.7912 8.39332 19.1649C7.92082 18.2326 7.43989 16.8277 7.4209 15.2204C7.40825 14.1573 7.54114 12.6575 7.27957 12.6427Z" fill="#D1701C"/>
<path d="M11.7262 30.3446C11.4878 30.3341 11.2136 30.3826 11.2031 30.6779C11.1925 30.9732 11.1925 31.8275 11.1925 31.9899C11.1925 32.1524 11.3254 32.2937 11.6587 32.3042C11.992 32.3148 15.1202 32.3042 15.3395 32.3042C15.5589 32.3042 15.6728 32.1144 15.6813 31.9245C15.6918 31.7347 15.6707 30.9352 15.6707 30.718C15.6707 30.3573 15.348 30.3573 15.1286 30.3573C14.8923 30.3531 11.7262 30.3446 11.7262 30.3446Z" fill="#FCC219"/>
<path d="M5.50012 3L4.88037 4.49392L3.00012 4.52486L4.50222 5.48398L3.956 7L5.50012 6.09392M5.50012 3L6.11987 4.49392L8.00012 4.52486L6.49802 5.48398L7.04424 7L5.50012 6.09392" stroke="#FCFA06" stroke-width="2" stroke-linecap="round" stroke-linejoin="round"/>
<path d="M13.5001 1L12.8804 2.49392L11.0001 2.52486L12.5022 3.48398L11.956 5L13.5001 4.09392M13.5001 1L14.1199 2.49392L16.0001 2.52486L14.498 3.48398L15.0442 5L13.5001 4.09392" stroke="#FCFA06" stroke-width="2" stroke-linecap="round" stroke-linejoin="round"/>
<path d="M21.5001 3L20.8804 4.49392L19.0001 4.52486L20.5022 5.48398L19.956 7L21.5001 6.09392M21.5001 3L22.1199 4.49392L24.0001 4.52486L22.498 5.48398L23.0442 7L21.5001 6.09392" stroke="#FCFA06" stroke-width="2" stroke-linecap="round" stroke-linejoin="round"/>
</svg>
